<svg width="37" height="33" viewBox="0 0 37 33" fill="none" xmlns="http://www.w3.org/2000/svg">
<g clip-path="url(#clip0_3_8)">
<path d="M30.0625 13.4062C30.0625 16.3646 28.9857 19.0975 27.1719 21.3146L36.3207 29.4809C37.224 30.2865 37.224 31.5949 36.3207 32.4006C35.4174 33.2062 33.9504 33.2062 33.0471 32.4006L23.8982 24.2344C21.4123 25.8586 18.3482 26.8125 15.0312 26.8125C6.72793 26.8125 0 20.8119 0 13.4062C0 6.00059 6.72793 0 15.0312 0C23.3346 0 30.0625 6.00059 30.0625 13.4062ZM15.0312 22.6875C16.3978 22.6875 17.751 22.4474 19.0135 21.981C20.2761 21.5146 21.4233 20.8309 22.3896 19.9691C23.3559 19.1072 24.1224 18.0841 24.6454 16.958C25.1683 15.832 25.4375 14.6251 25.4375 13.4062C25.4375 12.1874 25.1683 10.9805 24.6454 9.85447C24.1224 8.72842 23.3559 7.70526 22.3896 6.84341C21.4233 5.98157 20.2761 5.29792 19.0135 4.83149C17.751 4.36507 16.3978 4.125 15.0312 4.125C13.6647 4.125 12.3115 4.36507 11.049 4.83149C9.78641 5.29792 8.63923 5.98157 7.67292 6.84341C6.70661 7.70526 5.94009 8.72842 5.41713 9.85447C4.89417 10.9805 4.625 12.1874 4.625 13.4062C4.625 14.6251 4.89417 15.832 5.41713 16.958C5.94009 18.0841 6.70661 19.1072 7.67292 19.9691C8.63923 20.8309 9.78641 21.5146 11.049 21.981C12.3115 22.4474 13.6647 22.6875 15.0312 22.6875Z" fill="white"/>
</g>
<defs>
<clipPath id="clip0_3_8">
<rect width="37" height="33" fill="white"/>
</clipPath>
</defs>
</svg>
